<svg width="22" height="19" viewBox="0 0 22 19" fill="none" xmlns="http://www.w3.org/2000/svg">
<path d="M21.2535 3.7144C20.5703 1.696 18.9847 0.632805 17.1103 0.379205C16.6159 0.309605 16.1015 0.300005 15.5767 0.341605C13.0687 0.548005 11.0535 2.5608 11.0135 2.5608H10.9863C10.9439 2.5608 8.93112 0.548005 6.42072 0.341605C3.91272 0.135205 1.60952 1.164 0.747121 3.7144C-0.11768 6.264 0.54072 10.1288 3.95352 13.5832C5.21112 14.856 6.49592 15.8824 7.61672 16.6696C9.54312 18.0264 10.9871 18.6824 10.9871 18.6824H11.0143C11.0143 18.6824 14.6327 17.0368 18.0455 13.5824C21.4575 10.128 22.1167 6.2632 21.2543 3.7136L21.2535 3.7144Z" fill="#FC5061"/>
<path d="M21.2536 3.71441C20.5704 1.69601 18.9848 0.632807 17.1104 0.379207C16.616 0.309607 16.1016 0.300007 15.5768 0.341607C14.7496 0.409607 13.976 0.675207 13.3088 0.999207C14.06 1.59841 14.772 2.25521 15.3552 3.02241C16.5192 4.55521 17.1104 6.69441 16.2792 8.43041C15.7008 9.63841 14.5528 10.452 13.4688 11.2384C11.5096 12.6592 9.57437 14.1976 8.23757 16.2152C8.10317 16.4176 7.97517 16.6256 7.86157 16.8408C9.66317 18.0816 10.9856 18.6832 10.9856 18.6832H11.0128C11.0128 18.6832 14.6312 17.0376 18.044 13.5832C21.456 10.1288 22.1152 6.26401 21.2528 3.71441H21.2536Z" fill="#DE354E"/>
<path d="M5.07679 6.25921C6.27635 6.25921 7.24879 5.28677 7.24879 4.08721C7.24879 2.88764 6.27635 1.91521 5.07679 1.91521C3.87722 1.91521 2.90479 2.88764 2.90479 4.08721C2.90479 5.28677 3.87722 6.25921 5.07679 6.25921Z" fill="white"/>
</svg>
