<svg width="145" height="68" viewBox="0 0 145 68" fill="none" xmlns="http://www.w3.org/2000/svg">
<path d="M7.12911 32.4513C7.04591 33.4511 6.77632 34.4375 6.59659 35.4206C6.40355 36.4772 6.21052 37.5439 6.17058 38.6206C6.10068 40.4798 6.76633 42.2887 8.14422 43.5627C9.43891 44.7598 11.2694 45.3383 12.9003 44.4756C13.7689 44.0141 14.378 43.1815 14.8373 42.3322C15.2966 41.4829 15.6993 40.4965 16.0155 39.5368C17.217 35.862 17.2336 31.7491 16.538 27.974C15.9689 24.8943 14.4013 21.5238 11.1663 20.5875C7.44529 19.5108 3.85079 22.4199 2.42298 25.6701C1.62753 27.4824 1.25144 29.4051 0.981848 31.3546C0.712261 33.304 0.495925 35.0929 0.3162 36.9688C-0.359433 43.9907 -0.242945 51.6547 3.6278 57.8173C7.67827 64.2708 15.0869 67.6012 22.4923 67.9657C26.6592 68.1697 30.8694 67.4474 34.8467 66.2203C38.4578 65.1034 42.0723 63.5753 45.0577 61.2079C46.5621 60.0142 47.8634 58.68 48.9784 57.1084C49.9403 55.7509 50.6558 54.2528 51.215 52.6846C52.3166 49.6083 52.6062 46.1776 52.1402 42.9475C51.6743 39.7174 50.4961 36.3769 48.5058 33.6417C46.5155 30.9065 43.8296 28.5993 40.7976 27.0076C37.7656 25.416 34.3674 24.4797 30.9194 24.2022C29.2885 24.0718 27.6444 24.1052 26.0202 24.3159C24.2862 24.5399 22.5389 24.8877 21.0179 25.8072C19.3804 26.797 18.2388 28.5324 18.3053 30.4952C18.3719 32.458 19.5867 34.1801 21.0179 35.4139C22.449 36.6478 24.2629 37.5907 26.0468 38.3732C27.8308 39.1556 29.8377 39.8678 31.8147 40.3594C33.7916 40.8509 35.8219 41.1485 37.8554 41.299C38.6575 41.3592 39.3198 40.57 39.3997 39.8411C39.4796 39.1121 39.007 38.1692 38.2049 38.0756C35.3726 37.7412 32.5136 38.0388 29.8344 39.0553C27.1551 40.0718 24.7521 41.6401 22.8051 43.7132C21.7234 44.8668 20.7849 46.1843 20.0593 47.592C19.6699 48.351 19.8962 49.4244 20.695 49.829C21.4938 50.2336 22.4756 49.9928 22.8917 49.1836C23.1779 48.6286 23.4941 48.0869 23.8435 47.5686C23.8901 47.5017 23.9367 47.4382 23.98 47.3713C24.0865 47.2142 23.9101 47.4616 23.9101 47.4649C23.9167 47.378 24.1464 47.1506 24.1996 47.0804C24.396 46.8263 24.6024 46.5788 24.8154 46.3381C25.2148 45.8867 25.6408 45.4553 26.0868 45.0507C26.2066 44.9437 26.3264 44.8367 26.4495 44.7331C26.5494 44.6461 26.556 44.5558 26.4063 44.7665C26.4362 44.723 26.5061 44.6863 26.5461 44.6528C26.799 44.4522 27.0553 44.2582 27.3182 44.071C27.8274 43.7099 28.3566 43.3755 28.9025 43.0712C29.1654 42.9241 29.435 42.7836 29.7046 42.6499C29.8344 42.5863 30.1039 42.4392 29.8144 42.593C29.9708 42.5094 30.1472 42.4459 30.3136 42.379C30.8894 42.1416 31.4785 41.9343 32.0776 41.7604C32.6234 41.6033 33.2658 41.3692 33.8382 41.3558C33.795 41.3558 33.4688 41.4093 33.7683 41.3692C33.8682 41.3558 33.968 41.3391 34.0679 41.3291C34.2276 41.309 34.3874 41.289 34.5471 41.2756C34.8866 41.2421 35.2261 41.2187 35.5689 41.2087C35.9284 41.1953 36.2911 41.1987 36.6539 41.2087C36.8137 41.2154 36.9734 41.2254 37.1365 41.2355C37.243 41.2421 37.882 41.309 37.4294 41.2555L37.7789 38.0321C37.5293 38.0154 37.2796 37.9953 37.0333 37.9719C36.9335 37.9619 36.8336 37.9519 36.7338 37.9418C36.411 37.9084 36.6506 37.9318 36.7172 37.9418C36.2213 37.8816 35.7253 37.8148 35.2328 37.7345C34.3474 37.5907 33.4655 37.4102 32.5935 37.1962C31.6715 36.9688 30.7629 36.7013 29.8643 36.397C29.4383 36.2532 29.0156 36.0994 28.5963 35.9389C28.5031 35.9021 28.4099 35.8653 28.3167 35.8285C28.573 35.9289 28.3333 35.8352 28.2867 35.8152C28.0338 35.7082 27.7808 35.6045 27.5279 35.4942C26.6825 35.123 25.8505 34.7151 25.0384 34.2737C24.6989 34.0864 24.3627 33.8925 24.0399 33.6785C23.8968 33.5815 23.7537 33.4845 23.6139 33.3842C23.8901 33.5815 23.6472 33.4076 23.5773 33.3541C23.4741 33.2739 23.3742 33.1903 23.2744 33.1067C22.9782 32.8559 22.6953 32.5884 22.4357 32.3008C22.3658 32.2239 22.2959 32.1403 22.226 32.0634C22.2626 32.1036 22.4224 32.3309 22.2493 32.0935C22.1295 31.9263 22.0097 31.7625 21.9032 31.5853C21.8599 31.5151 21.82 31.4482 21.7834 31.378C21.7734 31.3579 21.5803 31.0202 21.7101 31.2509C21.8399 31.4816 21.6702 31.1506 21.6602 31.1171C21.6336 31.0436 21.6103 30.97 21.587 30.8965C21.5637 30.8229 21.5504 30.746 21.5271 30.6758C21.4139 30.3213 21.5404 30.9466 21.5271 30.7125C21.5138 30.5186 21.5138 30.3313 21.5071 30.1408C21.5004 29.91 21.4139 30.5353 21.5071 30.1675C21.5271 30.0906 21.5371 30.0103 21.557 29.9334C21.577 29.8565 21.6036 29.7763 21.6236 29.6994C21.7135 29.365 21.4871 29.8766 21.6169 29.7261C21.6569 29.6793 21.78 29.3015 21.8566 29.2948C21.8333 29.2948 21.6469 29.5489 21.8066 29.365C21.8765 29.2814 21.9464 29.1978 22.0197 29.1176C22.0829 29.0507 22.1495 28.9905 22.216 28.9236C22.2593 28.8801 22.449 28.743 22.2659 28.8735C22.0496 29.0273 22.3525 28.8166 22.3724 28.7999C22.4324 28.7564 22.4956 28.713 22.5588 28.6728C22.7019 28.5792 22.8484 28.4956 23.0015 28.4154C23.078 28.3752 23.1746 28.305 23.2578 28.285L23.0913 28.3619C23.1612 28.3318 23.2345 28.3017 23.3077 28.2716C23.9567 28.0074 24.639 27.8268 25.3279 27.6931C25.4244 27.673 25.5243 27.6597 25.6208 27.6396C25.2214 27.6964 25.8738 27.5928 25.6208 27.6396C25.7839 27.6162 25.9436 27.5928 26.1067 27.5694C26.5128 27.5159 26.9188 27.4758 27.3249 27.4423C28.0604 27.3855 28.796 27.3654 29.5315 27.3788C29.9009 27.3855 30.267 27.4022 30.6365 27.4256C30.8395 27.439 31.0458 27.4557 31.2489 27.4724C31.3321 27.4791 31.4119 27.4891 31.4918 27.4958C31.9112 27.5359 31.139 27.449 31.5551 27.5025C33.0594 27.6964 34.5405 28.0074 35.9849 28.4722C36.3344 28.5859 36.6839 28.7063 37.0267 28.8333C37.1798 28.8902 37.3329 28.947 37.4827 29.0106C37.1465 28.8701 37.4128 28.9838 37.496 29.0172C37.6091 29.0641 37.7223 29.1142 37.8321 29.161C38.5211 29.462 39.1967 29.7963 39.8524 30.1675C40.508 30.5387 41.1437 30.9366 41.7561 31.3679C41.8327 31.4214 42.2853 31.7591 41.9691 31.5184C42.1122 31.6287 42.2587 31.7391 42.4018 31.8528C42.7013 32.0935 42.9975 32.341 43.2838 32.5984C43.8596 33.1134 44.4054 33.6584 44.9179 34.2369C45.0244 34.3573 45.131 34.481 45.2375 34.6047C45.304 34.6816 45.3673 34.7619 45.4338 34.8388C45.5803 35.0127 45.2674 34.6248 45.4072 34.8053C45.6402 35.1096 45.8731 35.4173 46.0928 35.7349C46.5222 36.3602 46.9116 37.0122 47.261 37.6877C47.3343 37.8281 47.4075 37.9719 47.474 38.1157C47.5106 38.1926 47.7969 38.7811 47.6072 38.3899C47.7636 38.7109 47.8867 39.0553 48.0132 39.3897C48.2795 40.1019 48.5025 40.8309 48.6822 41.5698C48.7687 41.9209 48.8453 42.272 48.9118 42.6265C48.9418 42.7803 48.9851 42.9441 48.995 43.1013C48.9717 42.7101 48.9784 42.9876 48.995 43.0913C49.0117 43.2116 49.0283 43.3287 49.0416 43.449C49.2247 44.9237 49.228 46.3983 49.1049 47.8796C49.0849 48.1337 49.1581 47.475 49.1049 47.8695C49.0949 47.9498 49.0849 48.0267 49.0749 48.1069C49.0516 48.2842 49.025 48.4614 48.9984 48.6386C48.9385 49.0098 48.8686 49.3809 48.7854 49.7521C48.6256 50.4677 48.4259 51.1732 48.1829 51.862C48.1497 51.9557 48.1164 52.0493 48.0831 52.1396C47.9966 52.3803 48.1064 52.0861 48.1064 52.0861C48.1197 52.0927 47.91 52.5575 47.9034 52.5776C47.7536 52.922 47.5972 53.2597 47.4241 53.5941C47.0813 54.2629 46.6886 54.9015 46.2626 55.5201C46.1694 55.6539 46.2459 55.6639 46.2925 55.48C46.2825 55.5268 46.186 55.6238 46.1494 55.6706C46.0429 55.8144 45.9297 55.9548 45.8166 56.0919C45.5636 56.4029 45.294 56.7072 45.0178 56.9981C44.7416 57.289 44.442 57.5866 44.1391 57.8641C43.9894 58.0046 43.8329 58.1383 43.6798 58.2721C43.6199 58.3222 43.387 58.5162 43.6233 58.3222C43.5168 58.4092 43.4102 58.4928 43.3037 58.5797C41.9658 59.6263 40.5014 60.5024 38.9804 61.2447C38.814 61.325 38.6475 61.4052 38.4811 61.4821C38.7607 61.3517 38.4811 61.4821 38.4112 61.5122C38.3047 61.559 38.2016 61.6058 38.095 61.6527C37.6923 61.8265 37.2863 61.9937 36.8802 62.1542C36.0615 62.4752 35.2294 62.7661 34.3907 63.037C32.5602 63.6255 30.6964 64.0936 28.8026 64.4213C28.4864 64.4782 28.6861 64.4414 28.756 64.4313C28.6295 64.4514 28.4997 64.4715 28.3733 64.4915C28.1436 64.525 27.9106 64.5584 27.681 64.5852C27.1917 64.6453 26.7058 64.6988 26.2132 64.739C25.2614 64.8159 24.3062 64.856 23.351 64.8493C22.8883 64.846 22.4224 64.8293 21.9597 64.8025C21.7268 64.7891 21.4971 64.7724 21.2641 64.7523C21.1343 64.7423 21.0079 64.7289 20.8781 64.7189C20.5452 64.6922 21.0345 64.7423 20.6717 64.6988C19.853 64.5952 19.0375 64.4614 18.2321 64.2809C17.4267 64.1003 16.6212 63.8763 15.8358 63.6088C15.463 63.4817 15.0936 63.3479 14.7275 63.2042C15.0104 63.3179 14.581 63.1406 14.4845 63.1005C14.2848 63.0136 14.0851 62.9266 13.8854 62.833C13.1333 62.4853 12.4044 62.0974 11.6954 61.666C11.3626 61.4621 11.0331 61.248 10.7136 61.0274C10.5705 60.927 10.4307 60.8267 10.2909 60.7264C9.95146 60.4823 10.4307 60.8401 10.2344 60.6829C10.1345 60.6027 10.028 60.5224 9.92815 60.4422C9.30244 59.944 8.7067 59.4056 8.14755 58.8271C7.87464 58.5463 7.6117 58.2587 7.35875 57.9611C7.29884 57.8909 7.00596 57.5298 7.18236 57.7538C7.03258 57.5665 6.88947 57.3726 6.74636 57.1787C6.27375 56.5266 5.84441 55.8478 5.46166 55.1423C5.27528 54.8012 5.10221 54.4568 4.9358 54.1091C4.89919 54.0322 4.86258 53.9519 4.82929 53.875C4.65622 53.5005 4.89586 54.0455 4.80267 53.8115C4.72279 53.6108 4.63626 53.4169 4.55971 53.2163C3.96728 51.7116 3.54792 50.14 3.26169 48.5483C3.23174 48.3778 3.20178 48.2039 3.17516 48.0334C3.22508 48.3544 3.13855 47.7692 3.12856 47.7024C3.07198 47.2877 3.02206 46.8731 2.98212 46.4551C2.89891 45.6158 2.84566 44.7732 2.81904 43.9272C2.76246 42.262 2.80573 40.5968 2.90224 38.9349C2.95217 38.1023 3.0154 37.2697 3.09195 36.4371C3.12523 36.0559 3.16184 35.6747 3.20178 35.2969C3.21177 35.1865 3.22508 35.0728 3.23507 34.9625C3.26169 34.705 3.19846 35.2902 3.24505 34.8622C3.26835 34.6415 3.29498 34.4175 3.31827 34.1968C3.51464 32.468 3.69769 30.7259 4.07711 29.0239C4.1703 28.6026 4.28014 28.188 4.40661 27.7734C4.46985 27.5694 4.53641 27.3654 4.60963 27.1648C4.69949 26.914 4.48982 27.4423 4.66621 27.0177C4.71281 26.9073 4.7594 26.8003 4.806 26.69C4.98239 26.2987 5.17876 25.9175 5.40175 25.5531C5.45833 25.4628 5.51491 25.3725 5.57482 25.2856C5.59146 25.2588 5.71793 25.0916 5.59812 25.2488C5.72459 25.0816 5.85439 24.9211 5.99418 24.7639C6.12065 24.6235 6.25045 24.4864 6.38358 24.356C6.46013 24.2824 6.53668 24.2156 6.61323 24.142C6.6332 24.1219 6.79296 23.9882 6.64985 24.1052C6.96936 23.8411 7.31881 23.6103 7.68159 23.4097C7.74483 23.3763 8.12092 23.1957 7.94119 23.2726C8.10761 23.199 8.28068 23.1355 8.45375 23.0787C8.62681 23.0218 8.79988 22.975 8.97628 22.9349C9.05283 22.9182 9.13271 22.9014 9.21258 22.8881C8.97295 22.9249 9.31244 22.8847 9.36236 22.8814C9.56205 22.8647 9.75842 22.8747 9.95812 22.8714C9.99473 22.8714 10.1977 22.8881 9.99139 22.8647C10.0713 22.8747 10.1511 22.8881 10.231 22.9014C10.4107 22.9349 10.5838 22.9784 10.7569 23.0319C10.8434 23.0586 10.9333 23.0887 11.0198 23.1221C10.8234 23.0486 11.0697 23.1489 11.1297 23.179C11.2595 23.2425 11.3826 23.3094 11.5057 23.383C11.5823 23.4298 11.6555 23.4799 11.7287 23.5267C11.7787 23.5602 11.9551 23.7073 11.782 23.5635C12.0316 23.7708 12.2546 23.9949 12.4776 24.2289C12.7139 24.4764 12.401 24.1219 12.5275 24.2824C12.5841 24.3527 12.6373 24.4262 12.6906 24.5031C12.7771 24.6235 12.857 24.7472 12.9336 24.8709C13.1332 25.1886 13.3063 25.523 13.4628 25.864C13.3795 25.6835 13.4628 25.864 13.4727 25.8941C13.5027 25.9644 13.5326 26.0346 13.5593 26.1081C13.6292 26.2887 13.6957 26.4693 13.7556 26.6532C13.8721 27.0043 13.9753 27.3587 14.0652 27.7165C14.145 28.0342 14.2149 28.3585 14.2748 28.6795C14.2915 28.7731 14.3081 28.8668 14.3248 28.9637C14.3614 29.1811 14.2882 28.6795 14.3347 29.0373C14.3647 29.2547 14.3947 29.472 14.418 29.6927C14.5211 30.5821 14.5877 31.4783 14.611 32.3744C14.6543 34.1734 14.5278 35.7817 14.1217 37.5138C13.932 38.3163 13.6658 39.1957 13.3762 39.8812C13.0534 40.6469 12.6773 41.5063 12.1681 42.0447C12.0383 42.1818 12.015 42.2118 11.8918 42.2854C11.9018 42.2787 11.589 42.4559 11.7454 42.379C11.8719 42.3155 11.6755 42.4058 11.6422 42.4158C11.559 42.4426 11.4791 42.4626 11.3959 42.486C11.4425 42.4727 11.6389 42.4727 11.4126 42.4827C11.3194 42.486 10.8567 42.466 11.1263 42.5061C10.9533 42.4827 10.7935 42.4325 10.6271 42.3891C10.5838 42.3757 10.4207 42.3055 10.6171 42.3891C10.5505 42.359 10.4873 42.3289 10.4241 42.2988C10.2776 42.2252 10.1378 42.1383 10.0014 42.048C9.82831 41.9343 10.2011 42.2252 9.92815 41.9978C9.84162 41.9243 9.75509 41.8507 9.67188 41.7738C9.55872 41.6702 9.45888 41.5531 9.35238 41.4428C9.10276 41.182 9.41228 41.5331 9.28247 41.3625C9.22257 41.2856 9.16599 41.2054 9.11274 41.1251C9.02621 40.9947 8.943 40.8643 8.86978 40.7272C8.82318 40.6436 8.77992 40.5567 8.73665 40.4697C8.70004 40.3962 8.70337 40.3995 8.73998 40.4831L8.69671 40.3761C8.59021 40.0584 8.49036 39.714 8.47039 39.4967C8.4238 38.9851 8.39384 38.4768 8.40716 37.9652C8.43378 37.0758 8.55693 36.1997 8.65677 35.3169C8.76328 34.3539 8.75662 33.3876 8.63347 32.4246C8.51033 31.4616 7.21564 31.4783 7.13243 32.4613L7.12911 32.4513Z" fill="#121212"/>
<path d="M13.0271 22.8413C13.4864 22.7176 13.9158 22.44 14.3285 22.2327C14.6779 22.0588 15.084 21.8983 15.5133 21.778C15.9427 21.6576 16.1923 21.6208 16.6882 21.6241C16.8047 21.6241 16.9245 21.6308 17.041 21.6375C17.1176 21.6442 17.1175 21.6442 17.0477 21.6375C17.1042 21.6442 17.1641 21.6542 17.2207 21.6643C17.4537 21.7044 17.68 21.7646 17.903 21.8381C18.0694 21.895 18.146 21.9318 18.3523 22.0455C18.4588 22.1023 18.562 22.1658 18.6619 22.2294C18.6519 22.2227 18.9481 22.4367 18.8249 22.3397C19.1944 22.6306 19.5072 22.975 19.7003 23.2626C19.8367 23.4632 19.9532 23.6739 20.063 23.8879C20.1629 24.0785 20.0597 23.8377 20.1363 24.0584C20.1762 24.1721 20.2195 24.2858 20.2528 24.3995C20.286 24.5132 20.3193 24.6302 20.3459 24.7472C20.3526 24.774 20.4058 25.0682 20.3859 24.9479C20.4058 25.0916 20.4158 25.5698 20.509 25.8106C20.9217 26.8739 22.2863 26.8304 22.6491 25.7571C22.8521 25.1552 22.6258 24.3125 22.4327 23.7274C22.2397 23.1422 21.9601 22.5671 21.604 22.0622C20.8319 20.9788 19.7935 20.1662 18.5387 19.7349C17.4005 19.347 16.1058 19.3771 14.9642 19.7182C13.8991 20.0392 12.4647 20.8918 12.275 22.1056C12.2051 22.5571 12.5579 22.9617 13.0271 22.8346V22.8413Z" fill="#121212"/>
<path d="M14.3217 40.7279C13.8424 41.7511 14.9873 42.8579 15.7927 43.2959C16.7446 43.8142 17.8196 43.9212 18.868 43.6871C21.0747 43.1989 22.6023 41.0923 23.1548 39.0058C23.3379 38.307 23.4277 37.5814 23.4743 36.8624C23.5209 36.1435 23.6241 35.2975 23.4011 34.6288C23.0483 33.5721 21.5107 33.5655 21.2311 34.6823C21.068 35.3377 21.1945 36.1067 21.1545 36.7822C21.1246 37.3038 21.0414 37.8923 20.875 38.4976C20.8284 38.6748 20.7718 38.8487 20.7119 39.0192C20.7685 38.8587 20.6486 39.1697 20.6453 39.1763C20.5388 39.4204 20.4223 39.6612 20.2859 39.8886C20.2193 40.0023 20.1461 40.116 20.0695 40.2263C20.0229 40.2932 20.0263 40.2898 20.0762 40.2163C20.0296 40.2765 19.983 40.3366 19.9331 40.3935C19.7633 40.5941 19.5803 40.7881 19.3806 40.9586C19.5237 40.8349 19.2807 41.0288 19.2508 41.0522C19.131 41.1392 19.0045 41.2194 18.8747 41.293C18.8547 41.303 18.5685 41.4401 18.7349 41.3699C18.6018 41.4267 18.462 41.4769 18.3222 41.517C18.2257 41.5438 18.1292 41.5672 18.0293 41.5872C18.2723 41.5404 17.8662 41.5939 17.8196 41.5973C17.7165 41.6006 17.6166 41.5973 17.5168 41.5973C17.387 41.5872 17.3836 41.5906 17.5035 41.6039C17.4369 41.5939 17.3703 41.5839 17.3038 41.5738C17.0708 41.5371 16.8445 41.4869 16.6215 41.41C16.4318 41.3465 16.6914 41.4635 16.5017 41.3565C16.3885 41.2896 16.272 41.2328 16.1588 41.1592C16.079 41.1057 15.9991 41.0522 15.9192 40.9987C15.8127 40.9285 15.7861 40.9084 15.7561 40.8817C15.5331 40.6877 15.3434 40.4704 15.0406 40.4069C14.771 40.3534 14.4448 40.4604 14.3217 40.7279Z" fill="#121212"/>
<path d="M42.6854 7.94495C41.5971 8.10879 40.562 8.43648 39.4903 8.6973C38.4885 8.9414 37.4334 9.11527 36.4516 9.2624C35.3833 9.4229 34.3016 9.51318 33.2199 9.53659C32.9636 9.54328 32.704 9.54328 32.4477 9.54328C32.3246 9.54328 32.1981 9.53993 32.075 9.53325C32.1016 9.53325 31.6922 9.50984 31.8686 9.52322C32.045 9.53659 31.6423 9.48643 31.6656 9.48978C31.5658 9.46971 31.4659 9.44965 31.3661 9.41956C31.3095 9.40284 31.0699 9.30587 31.2729 9.3995C31.1664 9.34934 31.0565 9.29584 30.96 9.22227C31.163 9.37275 30.8835 9.12196 30.8668 9.1019C31.0399 9.3159 30.8702 9.1019 30.8768 9.08184L30.8236 8.98152C30.8835 9.11527 30.8901 9.11527 30.8369 8.97149L30.8069 8.86114C30.8236 8.99824 30.8269 9.02165 30.8169 8.92133C30.8169 8.82436 30.8103 8.72739 30.8036 8.63042C30.787 8.29939 30.7503 8.7508 30.8069 8.57023C30.8369 8.47995 30.8535 8.37629 30.8735 8.28267C30.9334 8.01851 30.7936 8.37295 30.9234 8.16229C31.0998 7.87473 31.3095 7.58716 31.5957 7.35309C31.8287 7.1625 32.3313 6.86156 32.6907 6.67096C33.4862 6.24964 34.428 5.89855 35.3899 5.61767C36.3518 5.33679 37.3968 5.11275 38.4186 4.93553C38.788 4.872 39.264 4.80178 39.7632 4.73156C40.2625 4.66134 40.7916 4.59112 41.3042 4.52425C42.1795 4.41056 43.0582 4.31693 43.9402 4.29687C44.3795 4.28684 44.8188 4.29687 45.2581 4.33031C45.3214 4.33699 45.591 4.37043 45.3414 4.33699C45.4412 4.35037 45.5444 4.36374 45.6442 4.38046C45.8639 4.41724 46.0802 4.46071 46.2966 4.51756C46.5129 4.5744 46.7159 4.63793 46.9223 4.7115C47.1286 4.78506 46.6593 4.5744 46.9888 4.74159C47.0754 4.78506 47.1652 4.82519 47.2518 4.872C47.4248 4.96228 47.5946 5.06594 47.7577 5.17629C47.9407 5.30001 47.5413 4.97566 47.8209 5.22644C47.9107 5.30669 48.0039 5.3836 48.0905 5.47054C48.1837 5.56082 48.2702 5.65445 48.3534 5.74807C48.6263 6.05236 48.2868 5.64442 48.4233 5.83836C48.5464 6.01558 48.6629 6.19614 48.7661 6.38674C48.8194 6.48036 48.866 6.57733 48.9125 6.67765C48.816 6.47368 48.9325 6.73115 48.9525 6.78131C49.039 7.00534 49.1156 7.23606 49.1788 7.46678C49.2421 7.69751 49.2986 7.93826 49.3452 8.17901C49.3552 8.23586 49.4085 8.52008 49.3685 8.28267C49.3852 8.39301 49.3985 8.50336 49.4118 8.6137C49.475 9.1253 49.505 9.64025 49.5216 10.1552C49.5915 12.4524 49.3219 14.5322 48.9891 16.7726C48.2402 21.8317 47.1186 26.8374 45.6509 31.736C45.4445 32.4249 45.9404 33.2775 46.646 33.4246C47.4082 33.5818 48.0805 33.1505 48.3035 32.4115C49.7246 27.6633 50.7997 22.8215 51.5219 17.9161C51.8946 15.3849 52.2408 12.8169 52.1676 10.2555C52.101 7.96501 51.7116 5.59092 50.1573 3.81536C48.7461 2.20365 46.5562 1.67868 44.5026 1.63855C42.4491 1.59843 40.1992 1.98631 38.0991 2.33406C35.7993 2.71525 33.5461 3.29373 31.4626 4.37378C30.4408 4.90209 29.4956 5.5976 28.8599 6.57399C28.2242 7.55038 28.0378 8.77421 28.4073 9.83753C29.3858 12.6497 32.947 12.1815 35.2734 11.8906C36.6646 11.7167 38.0192 11.4359 39.3572 11.0079C40.6951 10.5799 41.9898 10.1284 43.0648 9.28915C43.3211 9.08852 43.4709 8.79093 43.371 8.46323C43.2878 8.1857 42.9783 7.90148 42.6721 7.94829L42.6854 7.94495Z" fill="#121212"/>
<path d="M32.9243 10.6234C32.6747 12.4993 32.5748 14.3685 32.5349 16.2611L32.475 19.0866C32.4584 19.9326 32.3818 20.7953 32.5615 21.6279C32.708 22.3067 33.0741 23.0022 33.6865 23.3633C34.5086 23.8482 35.4871 23.4502 35.9863 22.7079C36.4456 22.0291 36.6852 21.1464 36.9748 20.384C37.291 19.5514 37.5872 18.7087 37.8601 17.8594C38.4825 15.9401 39.5009 12.7134 39.9136 10.7373C40.0301 10.1722 39.7173 9.57697 39.1415 9.42984C38.599 9.29274 37.9733 9.64719 37.8601 10.2156C37.2477 13.2485 35.8931 17.505 34.7815 20.3907C34.6683 20.6849 34.5551 20.9859 34.4287 21.2734C34.4021 21.3303 34.2756 21.5944 34.2689 21.5877C34.2323 21.5576 34.4886 21.5042 34.5086 21.5042C34.5884 21.5075 34.6417 21.5476 34.7082 21.5777C34.848 21.6346 34.6583 21.571 34.6849 21.551C34.7049 21.5376 34.8048 21.7717 34.6849 21.5409C34.6616 21.4975 34.635 21.4573 34.6151 21.4139C34.5385 21.2667 34.6583 21.5409 34.6051 21.3804C34.5884 21.3303 34.5718 21.2835 34.5552 21.2333C34.5352 21.1664 34.4753 20.8387 34.4952 20.9959C34.4087 20.2469 34.4586 19.4611 34.4387 18.7054L34.3788 16.2979C34.3322 14.4354 34.2356 12.5896 33.9827 10.7438C33.9461 10.473 33.7897 10.2489 33.5034 10.2155C33.2605 10.1888 32.9576 10.3559 32.921 10.6234H32.9243Z" fill="#121212"/>
<path d="M24.636 7.54392C24.4462 7.93849 24.4862 8.32971 24.4862 8.75772C24.4862 9.11885 24.4762 9.48332 24.4895 9.84445C24.5195 10.5968 24.5328 11.3492 24.5228 12.1015C24.5028 13.4858 24.4196 14.9738 24.2798 16.2946C24.1301 17.7391 23.8738 19.1736 23.5776 20.5914C23.4278 21.3036 23.2614 22.0125 23.0717 22.7147C22.9785 23.0658 22.8787 23.4169 22.7722 23.7647C22.639 24.2127 22.416 24.6842 22.4826 25.159C22.5525 25.6606 22.7622 26.0953 23.2681 26.2859C23.7373 26.4631 24.2499 26.3594 24.606 25.995C25.1851 25.3998 25.3416 24.303 25.5479 23.5072C25.7543 22.7114 25.9207 21.9925 26.0704 21.2301C26.3733 19.6919 26.553 18.1304 26.6562 16.5655C26.7594 15.0006 26.7561 13.5594 26.6496 12.0514C26.593 11.2722 26.5197 10.4931 26.4132 9.72073C26.36 9.32951 26.2768 8.94497 26.1869 8.55709C26.0871 8.11571 26.0172 7.72448 25.711 7.37673C25.4048 7.02898 24.8124 7.16273 24.626 7.54726L24.636 7.54392Z" fill="#121212"/>
<path d="M26.7689 6.2396C25.7272 6.59739 24.6721 6.9652 23.5938 7.19927C22.582 7.41996 21.5169 7.49018 20.4785 7.53699C19.4401 7.58381 18.3252 7.58381 17.2535 7.52362C16.884 7.50355 16.5479 7.47012 16.0786 7.32968C16.0753 7.32968 15.7424 7.19927 15.9288 7.28286C15.829 7.2394 15.7391 7.18255 15.6459 7.13239C15.4729 7.04211 15.5661 7.07889 15.6126 7.11567C15.5727 7.08224 15.3331 6.8047 15.4296 6.94848C15.4362 6.95517 15.2765 6.66092 15.3331 6.79801C15.3331 6.79467 15.2599 6.43688 15.2798 6.61745C15.2798 6.62748 15.2798 6.2396 15.2665 6.42685C15.2765 6.30648 15.3131 6.17941 15.3497 6.06572C15.3797 5.97544 15.5061 5.728 15.5428 5.6745C15.7025 5.44712 15.8856 5.28662 16.0986 5.13949C16.9939 4.5142 18.0955 4.20657 19.1472 3.87554C21.487 3.13656 23.8966 2.65506 26.3396 2.45443C27.6409 2.34743 29.0654 2.22036 30.3434 2.40093C30.6829 2.44774 31.0424 2.5213 31.3619 2.65506C31.2288 2.60156 31.5815 2.76875 31.5483 2.75203C31.5882 2.77209 31.9343 2.99612 31.8145 2.9025C31.911 2.97272 32.0009 3.05631 32.0841 3.14325C32.1407 3.20009 32.1939 3.25694 32.2472 3.31713C32.1806 3.23688 32.1906 3.25025 32.2738 3.36394C32.2771 3.37063 32.4669 3.70835 32.3703 3.49769C32.4369 3.64147 32.4702 3.79863 32.5035 3.95245C32.6333 4.58442 33.3988 4.93552 33.9779 4.7583C34.6302 4.55767 34.9131 3.88557 34.7667 3.25694C34.4538 1.88598 33.3255 0.906252 32.0608 0.424746C30.6862 -0.0968853 29.1253 -0.0199784 27.6842 0.0502413C24.732 0.194024 21.7799 0.708968 18.9542 1.5817C17.6462 1.9863 16.2151 2.40761 15.0635 3.17334C13.9119 3.93907 13.0033 5.22978 13.1165 6.67095C13.2296 8.11212 14.2481 9.06845 15.5627 9.45967C16.7043 9.80074 17.979 9.75058 19.1572 9.74724C21.9396 9.74055 25.4043 9.48308 27.388 7.25611C27.774 6.82142 27.3713 6.03229 26.7722 6.2396H26.7689Z" fill="#121212"/>
<path d="M115.732 44.0506C116.378 42.8762 117.258 41.9954 118.403 41.3495C119.548 40.7036 120.87 40.3806 122.396 40.3806C123.923 40.3806 125.244 40.7036 126.419 41.2908C127.593 41.878 128.503 42.7294 129.149 43.8157C129.795 44.902 130.147 46.1645 130.177 47.6325C130.177 48.1609 130.118 48.6307 130.059 49.0417H119.108V49.1592C119.196 50.2748 119.548 51.1263 120.165 51.7428C120.752 52.3887 121.604 52.6823 122.661 52.6823C123.483 52.6823 124.187 52.5062 124.745 52.1539C125.303 51.8015 125.685 51.2437 125.861 50.5391H129.942C129.766 51.5373 129.384 52.4475 128.797 53.2402C128.18 54.0622 127.388 54.6788 126.389 55.1485C125.391 55.6183 124.246 55.8238 122.954 55.8238C121.251 55.8238 119.813 55.5302 118.58 54.8843C117.347 54.2678 116.407 53.387 115.761 52.2126C115.115 51.0382 114.792 49.6877 114.792 48.1316C114.792 46.5755 115.086 45.225 115.732 44.0506ZM126.037 46.3407C125.89 45.4305 125.509 44.7259 124.892 44.2268C124.275 43.7276 123.512 43.4634 122.573 43.4634C121.662 43.4634 120.899 43.7276 120.282 44.2561C119.666 44.7846 119.314 45.4599 119.196 46.3407H126.037Z" fill="#121212"/>
<path d="M111.068 42.0248C112.184 43.1405 112.771 44.9314 112.771 47.4563V55.6477H108.631V47.6912C108.631 45.1075 107.604 43.7864 105.578 43.7864C104.492 43.7864 103.669 44.168 103.082 44.8727C102.495 45.6067 102.201 46.6343 102.201 47.9261V55.6477H98.0618V40.5568H101.673L102.055 42.4358C102.583 41.7899 103.2 41.2908 103.963 40.9385C104.697 40.5862 105.607 40.3806 106.723 40.3806C108.484 40.3806 109.923 40.9385 111.068 42.0248Z" fill="#121212"/>
<path d="M83.6272 54.8843C82.4234 54.2384 81.4839 53.3282 80.838 52.1539C80.1921 50.9795 79.8691 49.6289 79.8691 48.1022C79.8691 46.5755 80.1921 45.225 80.838 44.0506C81.4839 42.8762 82.4234 41.9954 83.6272 41.3495C84.8309 40.7036 86.2402 40.3806 87.8256 40.3806C89.411 40.3806 90.7909 40.7036 91.9947 41.3495C93.1984 41.9954 94.1379 42.8762 94.7838 44.0506C95.4297 45.225 95.7821 46.5755 95.7821 48.1022C95.7821 49.6583 95.4297 51.0088 94.7838 52.1832C94.1379 53.3576 93.1984 54.2384 91.9947 54.8843C90.7909 55.5302 89.411 55.8238 87.8256 55.8238C86.2402 55.8238 84.8309 55.5302 83.6272 54.8843ZM90.556 51.2437C91.2313 50.451 91.5836 49.3941 91.5836 48.1022C91.5836 46.8104 91.2313 45.7828 90.556 44.9607C89.8808 44.168 88.9706 43.757 87.8256 43.757C86.6806 43.757 85.7704 44.168 85.0952 44.9607C84.4199 45.7828 84.0969 46.8104 84.0969 48.1022C84.0969 49.3941 84.4199 50.451 85.0952 51.2437C85.7704 52.0658 86.6806 52.4475 87.8256 52.4475C88.9706 52.4475 89.8808 52.0658 90.556 51.2437Z" fill="#121212"/>
<path d="M65.7964 40.5568H78.5678V43.3753L71.0224 52.1538H78.9202V55.6476H65.4441V52.8291L72.9895 44.0506H65.7964V40.5568Z" fill="#121212"/>
<path d="M144.204 12.9986V33.5503H140.593L140.182 31.4658C139.007 32.9925 137.451 33.7265 135.484 33.7265C134.134 33.7265 132.959 33.4329 131.902 32.787C130.845 32.1411 129.994 31.2309 129.407 30.0565C128.819 28.8822 128.526 27.5316 128.526 25.9756C128.526 24.4489 128.819 23.1277 129.407 21.9533C129.994 20.7789 130.845 19.8981 131.902 19.2522C132.959 18.6063 134.163 18.2833 135.513 18.2833C137.451 18.2833 138.978 18.988 140.064 20.3385V12.9986H144.204ZM139.125 29.1758C139.771 28.383 140.123 27.3261 140.123 26.0343C140.123 24.7424 139.771 23.6855 139.125 22.8634C138.449 22.0707 137.569 21.6597 136.453 21.6597C135.337 21.6597 134.427 22.0707 133.752 22.8634C133.077 23.6855 132.754 24.7131 132.754 26.0049C132.754 27.2967 133.077 28.3537 133.752 29.1464C134.427 29.9685 135.337 30.3501 136.453 30.3501C137.569 30.3501 138.449 29.9685 139.125 29.1758Z" fill="#121212"/>
<path d="M124.802 19.9274C125.918 21.0431 126.505 22.834 126.505 25.3589V33.5503H122.366V25.5938C122.366 23.0102 121.338 21.689 119.312 21.689C118.226 21.689 117.404 22.0707 116.817 22.7753C116.229 23.5093 115.936 24.5369 115.936 25.8287V33.5503H111.796V18.4594H115.407L115.789 20.3384C116.318 19.6925 116.934 19.1934 117.697 18.8411C118.431 18.4888 119.342 18.2833 120.457 18.2833C122.219 18.2833 123.657 18.8411 124.802 19.9274Z" fill="#121212"/>
<path d="M95.0875 21.9532C95.7334 20.7788 96.6142 19.898 97.7592 19.2521C98.9042 18.6062 100.225 18.2833 101.752 18.2833C103.279 18.2833 104.6 18.6062 105.774 19.1934C106.949 19.7806 107.859 20.632 108.505 21.7183C109.151 22.8046 109.503 24.0671 109.532 25.5351C109.532 26.0636 109.474 26.5333 109.415 26.9444H98.4638V27.0618C98.5519 28.1775 98.9042 29.0289 99.5208 29.6454C100.108 30.2914 100.959 30.585 102.016 30.585C102.838 30.585 103.543 30.4088 104.101 30.0565C104.659 29.7042 105.04 29.1463 105.217 28.4417H109.298C109.121 29.4399 108.74 30.3501 108.152 31.1428C107.536 31.9649 106.743 32.5814 105.745 33.0512C104.747 33.5209 103.602 33.7264 102.31 33.7264C100.607 33.7264 99.1684 33.4328 97.9353 32.7869C96.7022 32.1704 95.7627 31.2896 95.1168 30.1152C94.4709 28.9408 94.1479 27.5903 94.1479 26.0342C94.1479 24.4781 94.4415 23.1276 95.0875 21.9532ZM105.393 24.2433C105.246 23.3331 104.864 22.6285 104.248 22.1294C103.631 21.6303 102.868 21.366 101.928 21.366C101.018 21.366 100.255 21.6303 99.6382 22.1587C99.0216 22.6872 98.6693 23.3625 98.5519 24.2433H105.393Z" fill="#121212"/>
<path d="M91.4978 12.8517C91.9382 13.2921 92.1731 13.8499 92.1731 14.4958C92.1731 15.1711 91.9382 15.7289 91.4978 16.1693C91.028 16.6391 90.4702 16.8446 89.7949 16.8446C89.0903 16.8446 88.5325 16.6391 88.0627 16.1693C87.593 15.7289 87.3875 15.1711 87.3875 14.4958C87.3875 13.8499 87.593 13.2921 88.0627 12.8517C88.5325 12.4113 89.0903 12.1764 89.7949 12.1764C90.4702 12.1764 91.028 12.4113 91.4978 12.8517ZM87.7104 18.4594H91.8501V33.5502H87.7104V18.4594Z" fill="#121212"/>
<path d="M85.8614 18.4594V22.2174H84.2173C83.0429 22.2174 82.1621 22.5698 81.6337 23.2744C81.0758 23.979 80.8116 24.9479 80.8116 26.1516V33.5503H76.6719V18.4594H80.4299L80.8116 20.7201C81.252 19.9861 81.8098 19.4283 82.4851 19.0466C83.131 18.6649 84.0411 18.4594 85.1568 18.4594H85.8614Z" fill="#121212"/>
<path d="M67.205 18.4595V17.1383C67.205 15.8171 67.5867 14.7895 68.3501 14.0849C69.1134 13.3803 70.2291 12.9986 71.7558 12.9986H75.1321V16.5218H72.5779C72.1375 16.5218 71.8145 16.6392 71.6383 16.8153C71.4328 17.0209 71.3448 17.3438 71.3448 17.7549V18.4595H75.1321V21.9533H71.3448V33.5503H67.205V21.9533H64.7095V18.4595H67.205Z" fill="#121212"/>
</svg>
