<svg width="20" height="21" viewBox="0 0 20 21" fill="none" xmlns="http://www.w3.org/2000/svg">
<path d="M10 20.5C15.5228 20.5 20 16.0228 20 10.5C20 4.97715 15.5228 0.5 10 0.5C4.47715 0.5 0 4.97715 0 10.5C0 16.0228 4.47715 20.5 10 20.5Z" fill="url(#paint0_linear_29_559)"/>
<path d="M10.8632 4.8125L12.1249 7.36719C12.2655 7.65234 12.539 7.84766 12.8515 7.89453L15.6718 8.30469C16.4608 8.41797 16.7772 9.39062 16.2069 9.94922L14.164 11.9375C13.9374 12.1602 13.8319 12.4766 13.8866 12.7891L14.3671 15.5977C14.5038 16.3828 13.6757 16.9844 12.9686 16.6133L10.4452 15.2852C10.164 15.1367 9.82802 15.1367 9.54677 15.2852L7.02724 16.6133C6.32021 16.9844 5.49599 16.3828 5.62881 15.5977L6.10927 12.7891C6.16396 12.4766 6.05849 12.1562 5.83193 11.9375L3.78896 9.94922C3.21865 9.39062 3.53115 8.42188 4.32412 8.30469L7.14443 7.89453C7.45693 7.84766 7.73037 7.65234 7.87099 7.36719L9.13271 4.8125C9.48818 4.09375 10.5116 4.09375 10.8632 4.8125Z" fill="url(#paint1_linear_29_559)"/>
<defs>
<linearGradient id="paint0_linear_29_559" x1="2.92895" y1="3.42895" x2="17.0711" y2="17.5711" gradientUnits="userSpaceOnUse">
<stop stop-color="#F8DA30"/>
<stop offset="1" stop-color="#FDAB22"/>
</linearGradient>
<linearGradient id="paint1_linear_29_559" x1="5.45529" y1="6.90477" x2="14.546" y2="15.9959" gradientUnits="userSpaceOnUse">
<stop stop-color="#FEF8D7"/>
<stop offset="1" stop-color="#FDE670"/>
</linearGradient>
</defs>
</svg>
