<svg width="18" height="18" viewBox="0 0 18 18" fill="none" xmlns="http://www.w3.org/2000/svg">
<path d="M9 0.250031C4.16797 0.250031 0.25 4.168 0.25 9.00003C0.25 13.8321 4.16797 17.75 9 17.75C13.832 17.75 17.75 13.8321 17.75 9.00003C17.75 4.168 13.832 0.250031 9 0.250031ZM13.2051 6.84573C13.2109 6.93753 13.2109 7.03323 13.2109 7.12698C13.2109 9.99417 11.0273 13.2969 7.03711 13.2969C5.80664 13.2969 4.66602 12.9395 3.70508 12.3242C3.88086 12.3438 4.04883 12.3516 4.22852 12.3516C5.24414 12.3516 6.17773 12.0078 6.92188 11.4258C5.96875 11.4063 5.16797 10.7813 4.89453 9.92191C5.22852 9.97073 5.5293 9.97073 5.87305 9.88284C5.38228 9.78314 4.94116 9.5166 4.62464 9.12851C4.30812 8.74043 4.13572 8.25473 4.13672 7.75394V7.72659C4.42383 7.8887 4.76172 7.98831 5.11523 8.00198C4.81805 7.80393 4.57433 7.5356 4.40569 7.22079C4.23704 6.90599 4.14868 6.55443 4.14844 6.1973C4.14844 5.793 4.25391 5.42386 4.44336 5.10355C4.98809 5.77413 5.66783 6.32257 6.43841 6.71324C7.20898 7.10392 8.05314 7.32806 8.91602 7.37112C8.60938 5.89651 9.71094 4.70316 11.0352 4.70316C11.6602 4.70316 12.2227 4.96487 12.6191 5.38675C13.1094 5.29495 13.5781 5.11136 13.9961 4.86526C13.834 5.36722 13.4941 5.79105 13.043 6.05862C13.4805 6.01175 13.9023 5.89066 14.293 5.72073C13.998 6.15433 13.6289 6.53909 13.2051 6.84573Z" fill="#CBFF70"/>
</svg>
